<svg aria-hidden="true" style="position: absolute; width: 0; height: 0; overflow: hidden;" version="1.1" xmlns="http://www.w3.org/2000/svg" xmlns:xlink="http://www.w3.org/1999/xlink">
<defs>
<symbol id="icon-slim-arrow" viewBox="0 0 32 32">
<path d="M12.933 0.492c-0.668-0.070-0.379-0.105 0.324-0.175 7.823 1.367 14.544 7.949 12.012 16.248-2.004 6.435-7.578 7.48-13.802 6.496 2.075 1.336 4.264 2.789 6.023 4.512 1.582 1.547 0.406 2.724-1.176 1.176-3.341-3.305-6.605-5.006-11.018-6.462-0.949-0.598-1.005-1.032 0.085-1.384 4.466-1.407 8.584-2.711 12.523-5.172 0.985-0.598 1.586 0.044 0.918 0.853-1.864 2.18-5.297 3.231-8.074 4.254 4.466 1.125 10.525 0.251 13.078-3.759 3.763-6.857-1.503-14.841-10.892-16.587z"></path>
</symbol>
</defs>
</svg>
